HIERARCHY
ROOT SpineBase
{
  OFFSET 0.000000 0.000000 0.000000
  CHANNELS 6 Xposition Yposition Zposition Zrotation Xrotation Yrotation
  JOINT SpineMid
  {
    OFFSET 0.000000 24.967567 0.000000
    CHANNELS 3 Zrotation Xrotation Yrotation
    JOINT SpineShoulder
    {
      OFFSET -0.051032 18.630975 -0.606828
      CHANNELS 3 Zrotation Xrotation Yrotation
      JOINT Neck
      {
        OFFSET -0.051109 6.213697 -0.475644
        CHANNELS 3 Zrotation Xrotation Yrotation
        JOINT Head
        {
          OFFSET 2.347814 13.026994 0.316011
          CHANNELS 3 Zrotation Xrotation Yrotation
          End Site
          {
            OFFSET 0 0 0
          }
        }
      }
      JOINT ShoulderLeft
      {
        OFFSET -12.885034 -2.903681 -7.921842
        CHANNELS 3 Zrotation Xrotation Yrotation
        JOINT ElbowLeft
        {
          OFFSET -2.345032 -21.676824 -5.054767
          CHANNELS 3 Zrotation Xrotation Yrotation
          JOINT WristLeft
          {
            OFFSET 8.028152 -15.180287 -12.970495
            CHANNELS 3 Zrotation Xrotation Yrotation
            JOINT HandLeft
            {
              OFFSET 2.632069 -3.664055 -5.368539
              CHANNELS 3 Zrotation Xrotation Yrotation
              JOINT HandTipLeft
              {
                OFFSET 2.358473 -5.907251 -4.651345
                CHANNELS 3 Zrotation Xrotation Yrotation
                End Site
                {
                  OFFSET 0 0 0
                }
              }
              JOINT ThumbLeft
              {
                OFFSET 1.647388 3.158647 -2.938260
                CHANNELS 3 Zrotation Xrotation Yrotation
                End Site
                {
                  OFFSET 0 0 0
                }
              }
            }
          }
        }
      }
      JOINT ShoulderRight
      {
        OFFSET 15.229340 -4.978869 1.667108
        CHANNELS 3 Zrotation Xrotation Yrotation
        JOINT ElbowRight
        {
          OFFSET 8.437621 -24.832980 -1.608995
          CHANNELS 3 Zrotation Xrotation Yrotation
          JOINT WristRight
          {
            OFFSET 6.554738 -14.142115 -19.622057
            CHANNELS 3 Zrotation Xrotation Yrotation
            JOINT HandRight
            {
              OFFSET -0.926111 -3.254471 -3.868689
              CHANNELS 3 Zrotation Xrotation Yrotation
              JOINT HandTipRight
              {
                OFFSET 2.004969 -4.831171 -2.156008
                CHANNELS 3 Zrotation Xrotation Yrotation
                End Site
                {
                  OFFSET 0 0 0
                }
              }
              JOINT ThumbRight
              {
                OFFSET -1.831247 1.765035 -3.906179
                CHANNELS 3 Zrotation Xrotation Yrotation
                End Site
                {
                  OFFSET 0 0 0
                }
              }
            }
          }
        }
      }
    }
  }
  JOINT HipLeft
  {
    OFFSET -6.214165 1.183425 -4.696978
    CHANNELS 3 Zrotation Xrotation Yrotation
    JOINT KneeLeft
    {
      OFFSET 7.838941 -6.210662 -29.155652
      CHANNELS 3 Zrotation Xrotation Yrotation
      JOINT AnkleLeft
      {
        OFFSET 1.258039 -33.948788 1.304688
        CHANNELS 3 Zrotation Xrotation Yrotation
        JOINT FootLeft
        {
          OFFSET 3.475198 -6.835203 -5.746727
          CHANNELS 3 Zrotation Xrotation Yrotation
          End Site
          {
            OFFSET 0 0 0
          }
        }
      }
    }
  }
  JOINT HipRight
  {
    OFFSET 5.910454 0.605064 -1.592789
    CHANNELS 3 Zrotation Xrotation Yrotation
    JOINT KneeRight
    {
      OFFSET 21.211807 -6.099739 -19.948453
      CHANNELS 3 Zrotation Xrotation Yrotation
      JOINT AnkleRight
      {
        OFFSET -2.109214 -30.559004 0.737297
        CHANNELS 3 Zrotation Xrotation Yrotation
        JOINT FootRight
        {
          OFFSET 2.568311 -5.081413 -5.492964
          CHANNELS 3 Zrotation Xrotation Yrotation
          End Site
          {
            OFFSET 0 0 0
          }
        }
      }
    }
  }
}
MOTION
Frames: 5
Frame Time: 0.033333
19.622810 46.323606 376.627594 -0.000000 0.000000 -14.360608 -0.000000 0.000000 14.360608 -0.000000 0.000000 0.000000 -0.000000 0.000000 0.000000 0.000000 0.000000 0.000000 -0.000000 0.000000 0.000000 -0.000000 0.000000 0.000000 -0.000000 0.000000 0.000000 -0.000000 0.000000 0.000000 0.000000 0.000000 0.000000 0.000000 0.000000 0.000000 -0.000000 0.000000 0.000000 -0.000000 0.000000 0.000000 -0.000000 0.000000 0.000000 -0.000000 0.000000 0.000000 0.000000 0.000000 0.000000 0.000000 0.000000 0.000000 -0.000000 0.000000 14.360608 -0.000000 0.000000 0.000000 -0.000000 0.000000 0.000000 0.000000 0.000000 0.000000 -0.000000 0.000000 14.360608 -0.000000 0.000000 0.000000 -0.000000 0.000000 0.000000 0.000000 0.000000 0.000000
19.653811 46.324462 376.645016 0.031032 0.046671 -14.523560 -0.018336 -0.052962 14.523539 -0.000000 0.000000 0.000000 -0.000000 0.000000 0.000000 0.000000 0.000000 0.000000 -0.000000 0.000000 0.000000 -0.000000 0.000000 0.000000 0.820129 0.887511 -0.561205 -1.019400 0.166498 1.123824 0.000000 0.000000 0.000000 0.000000 0.000000 0.000000 -0.000000 0.000000 0.000000 -0.000000 0.000000 0.000000 1.522928 -0.120276 -1.783459 -6.307144 1.361982 4.590444 0.000000 0.000000 0.000000 0.000000 0.000000 0.000000 -0.018336 -0.052962 14.523539 -0.000000 0.000000 0.000000 -0.000000 0.000000 0.000000 0.000000 0.000000 0.000000 -0.018336 -0.052962 14.523539 -0.000000 0.000000 0.000000 0.758683 1.360597 -0.139176 0.000000 0.000000 0.000000
19.682255 46.324893 376.661197 0.059486 0.090222 -14.661923 -0.034712 -0.102341 14.661845 -0.000000 0.000000 0.000000 -0.000000 0.000000 0.000000 0.000000 0.000000 0.000000 0.972447 -0.009659 -0.225853 -1.261700 1.142208 1.067721 1.846556 0.419877 -1.934559 -1.903944 0.351127 2.125927 0.000000 0.000000 0.000000 0.000000 0.000000 0.000000 -0.000000 0.000000 0.000000 -0.000000 0.000000 0.000000 2.651869 -0.529582 -3.025818 -12.670205 2.570744 8.988853 0.000000 0.000000 0.000000 0.000000 0.000000 0.000000 -0.034712 -0.102341 14.661845 -0.000000 0.000000 0.000000 0.791958 0.590121 -0.367016 0.000000 0.000000 0.000000 -0.034712 -0.102341 14.661845 -0.000000 0.000000 0.000000 1.346690 2.872116 -0.036422 0.000000 0.000000 0.000000
19.708144 46.324899 376.676137 0.085376 0.130674 -14.775806 -0.049226 -0.148126 14.775645 -0.000000 0.000000 0.000000 -0.000000 0.000000 0.000000 0.000000 0.000000 0.000000 1.252807 -0.018162 -0.290341 -1.698282 1.499503 1.448094 2.608096 0.494806 -2.764955 -2.609477 0.631225 3.002601 0.000000 0.000000 0.000000 0.000000 0.000000 0.000000 -0.000000 0.000000 0.000000 -0.000000 0.000000 0.000000 3.422708 -1.195766 -3.771388 -18.484054 3.616128 12.926831 0.000000 0.000000 0.000000 0.000000 0.000000 0.000000 -0.049226 -0.148126 14.775645 -0.000000 0.000000 0.000000 0.894087 0.652233 -0.421505 0.000000 0.000000 0.000000 -0.049226 -0.148126 14.775645 -0.000000 0.000000 0.000000 1.784679 4.528039 0.275904 0.000000 0.000000 0.000000
19.731476 46.324481 376.689836 0.108713 0.168043 -14.865285 -0.061964 -0.190308 14.865023 -0.000000 0.000000 0.000000 -0.000000 0.000000 0.000000 0.000000 0.000000 0.000000 1.406871 -0.028509 -0.325097 -2.011031 1.709893 1.724115 3.195352 0.433463 -3.471441 -3.096240 1.070869 3.745796 0.000000 0.000000 0.000000 0.000000 0.000000 0.000000 -0.000000 0.000000 0.000000 -0.000000 0.000000 0.000000 3.864259 -2.108069 -4.050051 -22.900345 4.622643 15.946792 0.000000 0.000000 0.000000 0.000000 0.000000 0.000000 -0.061964 -0.190308 14.865023 -0.000000 0.000000 0.000000 0.800663 0.560795 -0.388982 0.000000 0.000000 0.000000 -0.061964 -0.190308 14.865023 -0.000000 0.000000 0.000000 2.085065 6.322381 0.775951 0.000000 0.000000 0.000000
